<svg xmlns="http://www.w3.org/2000/svg" viewBox="0 0 880 430" width="880" class="arch-svg" role="img">
  <style>
    .bg{fill:var(--color-surface)}.bx{fill:var(--color-surface-2);stroke:var(--color-border);stroke-width:1.5}.hi{stroke:var(--color-accent);stroke-width:2}.good{stroke:var(--color-good);stroke-width:2}.warn{stroke:var(--color-warn);stroke-width:2}.ttl{fill:var(--color-fg);font:600 13px system-ui}.sub{fill:var(--color-fg-subtle);font:10px system-ui}.cd{fill:var(--color-accent);font:10px ui-monospace,monospace}.it{fill:var(--color-fg);font:11px system-ui}.flow{fill:none;stroke:var(--color-fg-subtle);stroke-width:1.5;marker-end:url(#a)}.lbl{fill:var(--color-fg-subtle);font:9.5px system-ui}.l-es{display:none}[data-arch-lang="es"] .l-en{display:none}[data-arch-lang="es"] .l-es{display:block}
  </style>
  <defs><marker id="a" viewBox="0 0 10 10" refX="9" refY="5" markerWidth="6" markerHeight="6" orient="auto"><path d="M0 0L10 5L0 10Z" fill="var(--color-fg-subtle)"/></marker></defs>
  <rect class="bg" width="880" height="430" rx="18"/>
  <text class="ttl l-en" x="34" y="36">ONE STATE, TWELVE MATHEMATICAL READINGS</text><text class="ttl l-es" x="34" y="36">UN ESTADO, DOCE LECTURAS MATEMÁTICAS</text>
  <rect class="bx hi" x="34" y="64" width="190" height="132" rx="14"/><text class="ttl l-en" x="52" y="88">Canonical case or controls</text><text class="ttl l-es" x="52" y="88">Caso canónico o controles</text><text class="cd l-neutral" x="52" y="111">src/data/scenarios.json</text><text class="it l-neutral" x="52" y="138">α · N · φ · β</text><text class="it l-en" x="52" y="160">allocator · seed · regime</text><text class="it l-es" x="52" y="160">asignador · semilla · régimen</text><text class="sub l-en" x="52" y="181">12 versioned parameter vectors</text><text class="sub l-es" x="52" y="181">12 vectores versionados</text>
  <rect class="bx good" x="344" y="64" width="192" height="132" rx="14"/><text class="ttl l-en" x="362" y="88">Shared certificate</text><text class="ttl l-es" x="362" y="88">Certificado compartido</text><text class="cd l-neutral" x="362" y="111">core/gapEngine.ts</text><text class="it l-en" x="362" y="138">points · gaps · groups</text><text class="it l-es" x="362" y="138">puntos · brechas · grupos</text><text class="it l-neutral" x="362" y="160">Farey · CF · dual · H0</text><text class="sub l-en" x="362" y="181">single deterministic recompute</text><text class="sub l-es" x="362" y="181">un recálculo determinista</text>
  <rect class="bx warn" x="656" y="64" width="190" height="132" rx="14"/><text class="ttl l-en" x="674" y="88">Honest status</text><text class="ttl l-es" x="674" y="88">Estado honesto</text><text class="cd l-neutral" x="674" y="111">theoremStatus</text><text class="it l-en" x="674" y="138">certified · boundary</text><text class="it l-es" x="674" y="138">certificado · frontera</text><text class="it l-en" x="674" y="160">contrast · warning</text><text class="it l-es" x="674" y="160">contraste · advertencia</text><text class="sub l-en" x="674" y="181">hypothesis stays visible</text><text class="sub l-es" x="674" y="181">hipótesis siempre visible</text>
  <path class="flow" d="M224 130H334"/><text class="lbl l-en" x="251" y="121">normalizes</text><text class="lbl l-es" x="251" y="121">normaliza</text><path class="flow" d="M536 130H646"/><text class="lbl l-en" x="570" y="121">classifies</text><text class="lbl l-es" x="570" y="121">clasifica</text>
  <rect class="bx" x="34" y="242" width="812" height="148" rx="14"/><text class="ttl l-en" x="52" y="268">Linked workbench</text><text class="ttl l-es" x="52" y="268">Laboratorio vinculado</text>
  <g><rect class="bx hi" x="54" y="292" width="132" height="70" rx="10"/><text class="it l-en" x="70" y="318">Orbit + genealogy</text><text class="it l-es" x="70" y="318">Órbita + genealogía</text><text class="sub l-en" x="70" y="340">circle geometry</text><text class="sub l-es" x="70" y="340">geometría circular</text><rect class="bx" x="207" y="292" width="132" height="70" rx="10"/><text class="it l-neutral" x="223" y="318">Farey + CF</text><text class="sub l-en" x="223" y="340">arithmetic events</text><text class="sub l-es" x="223" y="340">eventos aritméticos</text><rect class="bx" x="360" y="292" width="132" height="70" rx="10"/><text class="it l-en" x="376" y="318">Return times</text><text class="it l-es" x="376" y="318">Tiempos de retorno</text><text class="sub l-en" x="376" y="340">dual question</text><text class="sub l-es" x="376" y="340">pregunta dual</text><rect class="bx" x="513" y="292" width="132" height="70" rx="10"/><text class="it l-neutral" x="529" y="318">Rips H0</text><text class="sub l-en" x="529" y="340">merge thresholds</text><text class="sub l-es" x="529" y="340">umbrales de fusión</text><rect class="bx warn" x="666" y="292" width="158" height="70" rx="10"/><text class="it l-en" x="682" y="318">Words · lattice · IET</text><text class="it l-es" x="682" y="318">Palabras · retículo · IET</text><text class="sub l-en" x="682" y="340">extensions + contrasts</text><text class="sub l-es" x="682" y="340">extensiones + contrastes</text></g>
</svg>
